<?xml version="1.0" encoding="UTF-8"?>
<svg xmlns="http://www.w3.org/2000/svg" width="2048pt" height="580pt"
     viewBox="0 0 2048 580" version="1.1">
    <g id="surface1">
        <path style=" stroke:none;fill-rule:nonzero;fill:rgb(100%,100%,100%);fill-opacity:1;"
              d="M 613 121.5 C 547.601562 130.5 492.101562 176.398438 471.601562 238.398438 C 465 258.300781 463.5 268.601562 463.5 293.5 C 463.5 312.800781 463.800781 316.898438 465.898438 327 C 471.300781 353.300781 481.101562 375.699219 496.300781 396.5 C 502.398438 404.898438 519.199219 422.300781 527.5 429 C 580.5 471.300781 654 478.898438 714.5 448.199219 C 729.699219 440.601562 748.699219 426.398438 760.5 413.898438 C 784 389.101562 798.5 361.300781 805.699219 327 C 808 316 808.398438 312.101562 808.398438 294.5 C 808.5 268.398438 805.5 251.300781 796.898438 229.699219 C 773.199219 170 719 128.300781 655.5 121 C 643.601562 119.699219 624.800781 119.898438 613 121.5 Z M 670.199219 151.800781 C 726.5 166.5 765.800781 210.5 775.601562 270 C 778.601562 288.398438 777 316 771.898438 334.800781 C 759 382 721.800781 420.5 676.5 433.5 C 660.800781 438 649.5 439.300781 631 438.699219 C 605.101562 437.898438 586 432.601562 565.699219 420.800781 C 499 382.101562 474.800781 294.601562 511.101562 223.800781 C 531.101562 184.898438 569 157.199219 612.5 149.5 C 618.101562 148.5 626.300781 148.199219 639.5 148.398438 C 656.898438 148.699219 659.5 149 670.199219 151.800781 Z M 670.199219 151.800781 "/>
        <path style=" stroke:none;fill-rule:nonzero;fill:rgb(100%,100%,100%);fill-opacity:1;"
              d="M 1018 121.101562 C 983.898438 125.5 953.398438 139 925.800781 161.898438 C 903.5 180.398438 883.300781 210.398438 874 238.800781 C 860.101562 281.5 863.101562 328.199219 882.5 368.699219 C 904.300781 414.300781 946.101562 448.800781 995 461.398438 C 1011.800781 465.699219 1018.5 466.5 1039.5 466.398438 C 1061.101562 466.398438 1068.398438 465.398438 1086.699219 460.101562 C 1174.398438 434.898438 1227.5 344.699219 1207.398438 255.300781 C 1194.898438 199.601562 1155.300781 152.898438 1102.699219 132.101562 C 1077.5 122.101562 1044 117.699219 1018 121.101562 Z M 1071 151.300781 C 1096.898438 157.5 1119.101562 170 1138 189 C 1173.699219 225 1188.101562 279.5 1175.5 331.199219 C 1165.601562 371.699219 1137.601562 407 1101.601562 424.5 C 1081 434.5 1067.398438 437.898438 1044 438.699219 C 1031.101562 439.101562 1025.101562 438.898438 1016.5 437.5 C 957.199219 428.300781 913.101562 385.199219 899.800781 323.601562 C 896.601562 308.699219 896.601562 279 899.800781 263.800781 C 905.898438 234.601562 918.199219 211.101562 938 190.699219 C 959.601562 168.300781 983.601562 155.5 1015.300781 149.5 C 1020.300781 148.5 1028.199219 148.199219 1041.5 148.398438 C 1057.5 148.699219 1062.101562 149.199219 1071 151.300781 Z M 1071 151.300781 "/>
        <path style=" stroke:none;fill-rule:nonzero;fill:rgb(100%,100%,100%);fill-opacity:1;"
              d="M 1806.5 120.601562 C 1749.398438 126.5 1716.101562 154 1711.101562 199.398438 C 1709.101562 216.601562 1711.699219 232.300781 1718.699219 246.898438 C 1722.398438 254.699219 1724.601562 257.699219 1731.800781 265 C 1749.699219 283.101562 1766 290.800781 1821.101562 307.398438 C 1863.101562 320 1876.699219 325.398438 1889.5 334.5 C 1906.5 346.601562 1913.800781 361.199219 1912.699219 381 C 1911.898438 396.398438 1907.101562 406.898438 1896.398438 417.101562 C 1889 424 1882 428 1870.300781 432 C 1846.300781 440 1808.898438 440.199219 1774.199219 432.398438 C 1760 429.199219 1740.300781 423 1728.5 417.898438 C 1723.601562 415.800781 1719.199219 414.398438 1718.800781 414.800781 C 1718.5 415.199219 1715.601562 420.898438 1712.601562 427.5 L 1707 439.5 L 1715.199219 443.300781 C 1733.199219 451.699219 1762.5 460.199219 1786.5 464 C 1803.398438 466.699219 1830.101562 467.601562 1845.300781 466.101562 C 1891.5 461.601562 1922.398438 443.5 1936.398438 412.800781 C 1941.300781 402.199219 1943.101562 394.101562 1943.699219 380.5 C 1945.601562 337.699219 1925.601562 311.800781 1875.5 292.5 C 1868.898438 289.898438 1850.199219 283.800781 1834 278.898438 C 1786.699219 264.398438 1770 256.898438 1756.5 243.601562 C 1746.199219 233.5 1742 222.800781 1742 206.898438 C 1742 187.199219 1749.199219 173.898438 1765.699219 163 C 1774 157.5 1785.5 153.101562 1798.5 150.398438 C 1811.898438 147.601562 1841.800781 147.800781 1859.5 150.800781 C 1875.101562 153.5 1895.101562 158.601562 1908.398438 163.398438 L 1918.101562 166.898438 L 1919.898438 162.699219 C 1920.898438 160.398438 1923.398438 154.699219 1925.5 150.199219 C 1927.5 145.601562 1929 141.699219 1928.800781 141.5 C 1928.601562 141.398438 1924.5 139.699219 1919.5 137.699219 C 1903.300781 131.398438 1880 125.5 1859.5 122.398438 C 1849.800781 121 1814.699219 119.800781 1806.5 120.601562 Z M 1806.5 120.601562 "/>
        <path style=" stroke:none;fill-rule:nonzero;fill:rgb(100%,100%,100%);fill-opacity:1;"
              d="M 1289 293.5 L 1289 463 L 1319 463 L 1319.199219 319.199219 C 1319.300781 240.199219 1319.300781 173.699219 1319.199219 171.5 C 1319 168.898438 1319.199219 167.898438 1319.898438 168.5 C 1320.398438 169.101562 1324.699219 177.800781 1329.300781 188 C 1341.800781 215.300781 1363.898438 263.601562 1370.800781 278.5 C 1374.101562 285.601562 1384.101562 307.5 1393 327 C 1402 346.5 1413.300781 371.300781 1418.199219 382 C 1423.199219 392.699219 1430.5 408.699219 1434.5 417.5 C 1438.5 426.300781 1442.800781 435.601562 1444.101562 438.199219 L 1446.398438 443 L 1473.101562 443 L 1475.398438 437.699219 C 1476.699219 434.898438 1479.699219 428.398438 1482 423.5 C 1484.300781 418.5 1488.101562 410.199219 1490.5 405 C 1492.898438 399.800781 1501.300781 381.300781 1509.300781 364 C 1517.300781 346.699219 1534.800781 308.398438 1548.300781 279 C 1561.800781 249.601562 1577.398438 215.601562 1582.898438 203.5 C 1588.5 191.398438 1594.300781 178.699219 1595.800781 175.300781 C 1597.300781 171.800781 1598.800781 169 1599.300781 169 C 1599.699219 169 1600 235.101562 1600 316 L 1600 463 L 1630 463 L 1630 124 L 1588.199219 124 L 1583 135.699219 C 1580.101562 142.199219 1574.898438 153.601562 1571.5 161 C 1568.101562 168.398438 1560 186.199219 1553.5 200.5 C 1547.101562 214.800781 1539.398438 231.699219 1536.5 238 C 1529.398438 253.5 1491.300781 337 1483.5 354.5 C 1465 395.5 1460.398438 405.199219 1459.5 405.300781 C 1458.898438 405.300781 1453.5 394.300781 1447.398438 380.898438 C 1436.199219 356.199219 1405.398438 288.300781 1379.699219 231.5 C 1372 214.398438 1357.898438 183.398438 1348.398438 162.5 L 1331.199219 124.5 L 1310.101562 124.199219 L 1289 124 Z M 1289 293.5 "/>
        <path style=" stroke:none;fill-rule:nonzero;fill:rgb(100%,100%,100%);fill-opacity:1;"
              d="M 124 141.898438 L 124 155.800781 L 200.300781 155.300781 C 280.5 154.699219 290.699219 155.101562 306.199219 159.101562 C 322.699219 163.300781 338.199219 171.898438 347.101562 181.898438 C 353.398438 189 359.601562 201.300781 361.601562 211 C 367.800781 240.398438 349.101562 271.800781 317.601562 284.898438 C 303.199219 290.898438 301.300781 291 208.398438 291 L 124 291 L 124 466 L 158 466 L 158 319 L 215.800781 318.800781 C 247.5 318.601562 274.800781 318.601562 276.300781 318.800781 C 278.5 319.101562 279.898438 320.300781 282.300781 324.300781 C 288.199219 333.699219 361.800781 450.398438 366.699219 458 L 371.5 465.5 L 390.300781 465.800781 C 400.601562 465.898438 409 465.800781 409 465.5 C 409 465.101562 386.699219 429.699219 360.101562 388 C 356.699219 382.800781 345 364.300781 334.101562 347 L 314.101562 315.5 L 320.300781 313.699219 C 344.601562 306.601562 364.101562 294 377.398438 276.699219 C 405.800781 239.5 401.5 189.898438 367 157.699219 C 353.699219 145.398438 338.800781 137.199219 318.5 131.199219 L 309.5 128.601562 L 216.800781 128.199219 L 124 127.898438 Z M 124 141.898438 "/>
    </g>
</svg>
