<?xml version="1.0" standalone="no"?>
<!DOCTYPE svg PUBLIC "-//W3C//DTD SVG 20010904//EN"
        "http://www.w3.org/TR/2001/REC-SVG-20010904/DTD/svg10.dtd">
<svg version="1.0" xmlns="http://www.w3.org/2000/svg"
     width="2048.000000pt" height="580.000000pt" viewBox="0 0 2048.000000 580.000000"
     preserveAspectRatio="xMidYMid meet">
    <metadata>
        Created by potrace 1.15, written by Peter Selinger 2001-2017
    </metadata>
    <g transform="translate(0.000000,580.000000) scale(0.100000,-0.100000)"
       fill="#000000" stroke="none">
        <path d="M6130 4585 c-654 -90 -1209 -549 -1414 -1169 -66 -199 -81 -302 -81
-551 0 -193 3 -234 24 -335 54 -263 152 -487 304 -695 61 -84 229 -258 312
-325 530 -423 1265 -499 1870 -192 152 76 342 218 460 343 235 248 380 526
452 869 23 110 27 149 27 325 1 261 -29 432 -115 648 -237 597 -779 1014
-1414 1087 -119 13 -307 11 -425 -5z m572 -303 c563 -147 956 -587 1054 -1182
30 -184 14 -460 -37 -648 -129 -472 -501 -857 -954 -987 -157 -45 -270 -58
-455 -52 -259 8 -450 61 -653 179 -667 387 -909 1262 -546 1970 200 389 579
666 1014 743 56 10 138 13 270 11 174 -3 200 -6 307 -34z"/>
        <path d="M10180 4589 c-341 -44 -646 -179 -922 -408 -223 -185 -425 -485 -518
-769 -139 -427 -109 -894 85 -1299 218 -456 636 -801 1125 -927 168 -43 235
-51 445 -50 216 0 289 10 472 63 877 252 1408 1154 1207 2048 -125 557 -521
1024 -1047 1232 -252 100 -587 144 -847 110z m530 -302 c259 -62 481 -187 670
-377 357 -360 501 -905 375 -1422 -99 -405 -379 -758 -739 -933 -206 -100
-342 -134 -576 -142 -129 -4 -189 -2 -275 12 -593 92 -1034 523 -1167 1139
-32 149 -32 446 0 598 61 292 184 527 382 731 216 224 456 352 773 412 50 10
129 13 262 11 160 -3 206 -8 295 -29z"/>
        <path d="M18065 4594 c-571 -59 -904 -334 -954 -788 -20 -172 6 -329 76 -475
37 -78 59 -108 131 -181 179 -181 342 -258 893 -424 420 -126 556 -180 684
-271 170 -121 243 -267 232 -465 -8 -154 -56 -259 -163 -361 -74 -69 -144
-109 -261 -149 -240 -80 -614 -82 -961 -4 -142 32 -339 94 -457 145 -49 21
-93 35 -97 31 -3 -4 -32 -61 -62 -127 l-56 -120 82 -38 c180 -84 473 -169 713
-207 169 -27 436 -36 588 -21 462 45 771 226 911 533 49 106 67 187 73 323 19
428 -181 687 -682 880 -66 26 -253 87 -415 136 -473 145 -640 220 -775 353
-103 101 -145 208 -145 367 0 197 72 330 237 439 83 55 198 99 328 126 134 28
433 26 610 -4 156 -27 356 -78 489 -126 l97 -35 18 42 c10 23 35 80 56 125 20
46 35 85 33 87 -2 1 -43 18 -93 38 -162 63 -395 122 -600 153 -97 14 -448 26
-530 18z"/>
        <path d="M12890 2865 l0 -1695 150 0 150 0 2 1438 c1 790 1 1455 0 1477 -2 26
0 36 7 30 5 -6 48 -93 94 -195 125 -273 346 -756 415 -905 33 -71 133 -290
222 -485 90 -195 203 -443 252 -550 50 -107 123 -267 163 -355 40 -88 83 -181
96 -207 l23 -48 134 0 133 0 23 53 c13 28 43 93 66 142 23 50 61 133 85 185
24 52 108 237 188 410 80 173 255 556 390 850 135 294 291 634 346 755 56 121
114 248 129 282 15 35 30 63 35 63 4 0 7 -661 7 -1470 l0 -1470 150 0 150 0 0
1695 0 1695 -209 0 -209 0 -52 -117 c-29 -65 -81 -179 -115 -253 -34 -74 -115
-252 -180 -395 -64 -143 -141 -312 -170 -375 -71 -155 -452 -990 -530 -1165
-185 -410 -231 -507 -240 -508 -6 0 -60 110 -121 244 -112 247 -420 926 -677
1494 -77 171 -218 481 -313 690 l-172 380 -211 3 -211 2 0 -1695z"/>
        <path d="M1240 4381 l0 -139 763 5 c802 6 904 2 1059 -38 165 -42 320 -128
409 -228 63 -71 125 -194 145 -291 62 -294 -125 -608 -440 -739 -144 -60 -163
-61 -1092 -61 l-844 0 0 -875 0 -875 170 0 170 0 0 735 0 735 578 2 c317 2
590 2 605 0 22 -3 36 -15 60 -55 59 -94 795 -1261 844 -1337 l48 -75 188 -3
c103 -1 187 0 187 3 0 4 -223 358 -489 775 -34 52 -151 237 -260 410 l-200
315 62 18 c243 71 438 197 571 370 284 372 241 868 -104 1190 -133 123 -282
205 -485 265 l-90 26 -927 4 -928 3 0 -140z"/>
    </g>
</svg>
